P3
# Created by the Paint.NET plugin 'ImPNM.FileType'
3 2
255
0 0 0 127 127 127 255 255 255 0 0 0 0 0 0 255 255 255
