P3
# Created by the Paint.NET plugin 'ImPNM.FileType'
3 2
255
0 0 0 127 127 127 254 254 254 54 54 54 182 182 182 18 18 18
