P3
5 5
255
24
0
23
126
102
101
149
174
149
255
255
255
255
255
255
255
212
236
255
255
255
255
255
255
255
255
255
255
255
255
255
198
213
255
255
204
190
255
190
172
255
255
166
150
255
255
103
47
255
255
0
79
255
79
0
255
255
47
103
255
255
0
0
255
255
0
0
255
0
0
255
255
0
0
255
