P3
# Created by the Paint.NET plugin 'ImPNM.FileType'
5 5
255
0 0 0 63 63 63 127 127 127 189 189 189 255 255 255 255 189 189
255 255 189 189 255 189 189 255 255 189 189 255 255 127 127 255 255 127
127 255 127 127 255 255 127 127 255 255 63 63 255 255 63 63 255 63
63 255 255 63 63 255 255 0 0 255 255 0 0 255 0 0 255 255 0 0 255
