P3
5 5
255
55
47
43
91
91
78
114
127
114
142
154
154
122
126
135
147
114
98
190
190
142
174
222
174
173
222
222
138
154
187
191
127
94
222
222
126
158
255
158
126
222
222
94
127
191
191
95
47
207
207
63
111
255
111
63
207
207
47
95
191
143
55
11
147
147
15
59
191
59
15
147
147
11
55
143
