P3
# Created by the Paint.NET plugin 'ImPNM.FileType'
3 2
255
50 50 50 177 177 177 255 255 255 255 50 50 50 255 50 50 50 255
