P3
# Created by the Paint.NET plugin 'ImPNM.FileType'
3 2
255
0 0 0 77 77 77 205 205 205 205 0 0 0 205 0 0 0 205
