P3
3 2
255
0
0
0
107
107
107
225
225
225
225
0
0
0
225
0
0
0
225
