P3
3 2
255
0
0
0
171
152
118
255
255
238
100
88
69
196
174
136
48
42
33
